<?xml version="1.0" encoding="UTF-8"?>
<svg version="1.1" viewBox="20 15 90 95" xmlns="http://www.w3.org/2000/svg">
  <g transform="matrix(1.6342 0 0 1.6342 26.398 22.969)" fill="#34a1e5">
    <path
      d="m24 0a24 24 0 0 0-24 24 24 24 0 0 0 24 24 24 24 0 0 0 24-24 24 24 0 0 0-24-24zm2 11c1.376 0 2.5 1.124 2.5 2.5a2.502 2.502 0 0 1-2.445 2.494l-0.946 5.203a3.503 3.503 0 0 1 2.106 1.924l5.305-1.421c-6e-3 -0.067-0.02-0.131-0.02-0.199 0-1.376 1.124-2.5 2.5-2.5s2.5 1.124 2.5 2.5-1.124 2.499-2.5 2.499a2.496 2.496 0 0 1-2.2-1.34l-5.341 1.432c0.016 0.135 0.041 0.268 0.041 0.408 0 0.785-0.269 1.502-0.707 2.086l3.697 3.697a1.97 1.97 0 0 1 1.01-0.283c1.1 0 2 0.9 2 2s-0.9 2-2 2-2-0.9-2-2c0-0.368 0.11-0.71 0.285-1.008l-3.701-3.699c-0.584 0.437-1.3 0.707-2.084 0.707-0.785 0-1.502-0.27-2.086-0.707l-2.975 2.975c0.35 0.49 0.561 1.086 0.561 1.732 0 1.653-1.347 3-3 3s-3-1.347-3-3 1.347-3 3-3c0.647 0 1.244 0.208 1.734 0.559l2.973-2.973a3.463 3.463 0 0 1-0.707-2.086c0-0.14 0.025-0.273 0.041-0.408l-5.342-1.432a2.496 2.496 0 0 1-2.199 1.34 2.506 2.506 0 0 1-2.5-2.5c0-1.376 1.124-2.5 2.5-2.5s2.5 1.124 2.5 2.5c0 0.068-0.014 0.132-0.02 0.2l5.305 1.421a3.503 3.503 0 0 1 3.215-2.121c0.043 0 0.083 0.012 0.125 0.012l0.945-5.196a2.505 2.505 0 0 1-1.57-2.316c0-1.376 1.124-2.5 2.5-2.5zm0 1c-0.84 0-1.5 0.66-1.5 1.5s0.66 1.5 1.5 1.5 1.5-0.66 1.5-1.5-0.66-1.5-1.5-1.5zm-13 8c-0.84 0-1.5 0.66-1.5 1.5s0.66 1.5 1.5 1.5 1.5-0.66 1.5-1.5-0.66-1.5-1.5-1.5zm22 0c-0.84 0-1.5 0.66-1.5 1.5s0.66 1.5 1.5 1.5 1.5-0.66 1.5-1.5-0.66-1.5-1.5-1.5zm-11 2a2.484 2.484 0 0 0-2.5 2.5c0 1.394 1.106 2.5 2.5 2.5s2.5-1.106 2.5-2.5-1.106-2.5-2.5-2.5zm0 1c0.822 0 1.5 0.678 1.5 1.5s-0.678 1.5-1.5 1.5-1.5-0.678-1.5-1.5 0.678-1.5 1.5-1.5zm0 1c-0.286 0-0.5 0.214-0.5 0.5s0.214 0.5 0.5 0.5 0.5-0.214 0.5-0.5-0.214-0.5-0.5-0.5zm-7.5 6c-1.117 0-2 0.883-2 2s0.883 2 2 2 2-0.883 2-2-0.883-2-2-2zm15 1c-0.563 0-1 0.437-1 1s0.437 1 1 1 1-0.437 1-1-0.437-1-1-1z"/>
  </g>
</svg>
