<?xml version="1.0" encoding="UTF-8"?>
<svg version="1.1" viewBox="0 50 300 200" xmlns="http://www.w3.org/2000/svg">
  <g transform="matrix(4.7016 0 0 4.7016 20.846 140.67)" fill="#fff">
    <path
      d="m2.88 14.01q-0.21 0-0.21-0.19 0-0.2 0.21-0.2h0.61q0.18 0 0.29-0.1 0.11-0.11 0.11-0.28v-3.3l-2.81-4.72q-0.13-0.19-0.33-0.3-0.2-0.1-0.43-0.1h-0.28q-0.22 0-0.22-0.21 0-0.16 0.19-0.2h3.38q0.1 0 0.16 0.05t0.06 0.15q0 0.08-0.06 0.14-0.06 0.07-0.16 0.07h-0.65q-0.21 0-0.21 0.15 0 0.07 0.05 0.15l2.49 4.3 1.87-3.5q0.14-0.26 0.14-0.5 0-0.3-0.21-0.45t-0.63-0.15h-0.19q-0.09 0-0.13-0.07-0.05-0.06-0.05-0.14 0-0.1 0.04-0.14 0.04-0.03 0.14-0.06h2.85q0.19 0 0.19 0.2 0 0.21-0.19 0.21-0.44 0-0.83 0.23-0.38 0.24-0.62 0.65l-2.17 4.16v3.38q0 0.17 0.1 0.28 0.09 0.1 0.28 0.1h0.61q0.2 0 0.2 0.2 0 0.19-0.2 0.19h-3.39zm5.11 0q-0.08 0-0.14-0.05-0.05-0.06-0.05-0.14 0-0.16 0.19-0.2 1.05-0.25 1.43-1.33l2.69-7.81q0.08-0.18 0.22-0.14l0.62 0.07q0.14 0.04 0.15 0.15l2.97 8.63q0.07 0.19 0.23 0.31 0.15 0.12 0.36 0.12h0.27q0.09 0 0.14 0.06 0.05 0.05 0.05 0.14 0 0.08-0.05 0.14-0.05 0.05-0.14 0.05h-3.13q-0.09 0-0.15-0.05-0.06-0.06-0.06-0.14 0-0.09 0.06-0.14 0.06-0.06 0.15-0.06h0.48q0.15 0 0.25-0.11t0.1-0.27q0-0.08-0.01-0.12l-0.86-2.45h-3.47l-0.55 1.68q-0.07 0.21-0.07 0.35 0 0.38 0.27 0.65t0.67 0.27h0.07q0.07 0 0.11 0.06 0.05 0.05 0.05 0.14 0 0.08-0.05 0.14-0.04 0.05-0.11 0.05h-2.69zm4.11-8.31-1.71 4.62h3.27l-1.56-4.62zm10.09 8.44q-1.19 0-2.2-0.67t-1.59-1.8q-0.59-1.13-0.59-2.46 0-1.34 0.59-2.48 0.58-1.14 1.59-1.81 1.01-0.66 2.2-0.66 1.2 0 2.22 0.66 1.01 0.67 1.61 1.81 0.59 1.14 0.59 2.48 0 1.33-0.59 2.46-0.6 1.13-1.62 1.8t-2.21 0.67zm0-0.32q1.23 0 2-1.12 0.76-1.12 0.76-3.49 0-2.39-0.76-3.5-0.75-1.1-2-1.1-1.23 0-1.99 1.11-0.77 1.11-0.77 3.49 0 2.37 0.77 3.49 0.76 1.12 1.99 1.12zm5.95 0.19q-0.1 0-0.15-0.05-0.06-0.06-0.06-0.14 0-0.09 0.06-0.14 0.05-0.06 0.15-0.06h0.55q0.14 0 0.25-0.11t0.11-0.27v-8.05q0-0.15-0.1-0.26-0.11-0.11-0.26-0.11h-0.55q-0.08 0-0.15-0.07-0.06-0.06-0.06-0.14 0-0.09 0.06-0.14 0.05-0.06 0.15-0.06h3.5q2.2 0 3.6 1.16 1.4 1.15 1.4 3.64 0 1.67-0.67 2.75-0.68 1.07-1.8 1.56-1.13 0.49-2.53 0.49h-3.5zm2.31-0.39h0.85q1.39 0 2.19-0.33 0.8-0.34 1.18-1.21 0.39-0.88 0.39-2.53v-0.72q0-1.61-0.44-2.49-0.43-0.88-1.21-1.2t-1.97-0.32h-0.99v8.8zm6.37 0.39q-0.08 0-0.14-0.05-0.06-0.06-0.06-0.14 0-0.16 0.2-0.2 1.05-0.25 1.43-1.33l2.69-7.81q0.08-0.18 0.22-0.14l0.62 0.07q0.14 0.04 0.15 0.15l2.97 8.63q0.07 0.19 0.22 0.31 0.16 0.12 0.37 0.12h0.26q0.1 0 0.15 0.06 0.05 0.05 0.05 0.14 0 0.08-0.05 0.14-0.05 0.05-0.15 0.05h-3.12q-0.1 0-0.15-0.05-0.06-0.06-0.06-0.14 0-0.09 0.06-0.14 0.05-0.06 0.15-0.06h0.48q0.15 0 0.25-0.11t0.1-0.27q0-0.08-0.02-0.12l-0.85-2.45h-3.47l-0.55 1.68q-0.07 0.21-0.07 0.35 0 0.38 0.27 0.65 0.26 0.27 0.67 0.27h0.07q0.07 0 0.11 0.06 0.04 0.05 0.04 0.14 0 0.08-0.04 0.14-0.04 0.05-0.11 0.05h-2.69zm4.1-8.31-1.71 4.62h3.28l-1.57-4.62zm12.62 10.06q-0.8 0-1.13-0.49-0.33-0.5-0.46-1.35-0.63 0.22-1.26 0.22-1.19 0-2.21-0.67t-1.61-1.8q-0.6-1.13-0.6-2.46 0-1.34 0.6-2.48 0.59-1.14 1.61-1.81 1.01-0.66 2.21-0.66 1.21 0 2.22 0.66 1.02 0.67 1.61 1.81 0.6 1.14 0.6 2.48 0 1.33-0.61 2.47-0.61 1.13-1.62 1.8 0.37 0.7 0.69 1.05t0.64 0.35q0.18 0 0.3-0.06 0.11-0.06 0.23-0.18t0.21-0.12q0.12 0 0.12 0.1 0 0.15-0.15 0.42-0.15 0.28-0.49 0.5t-0.9 0.22zm-4.29-2.42q-0.22-0.32-0.22-0.82 0-0.48 0.25-0.82 0.25-0.33 0.61-0.5t0.68-0.17q0.49 0 0.99 0.31 0.49 0.31 0.72 0.81l0.32 0.7q0.84-1.15 0.84-3.64 0-2.39-0.75-3.5-0.75-1.1-2-1.1-1.24 0-2 1.11-0.77 1.11-0.77 3.49 0 3.1 1.33 4.13zm1.44 0.48q0.66 0 1.21-0.31-0.06-0.53-0.09-0.66-0.15-0.81-0.46-1.15-0.32-0.35-0.78-0.35-0.45 0-0.83 0.28-0.38 0.27-0.38 0.86 0 0.6 0.39 0.96 0.38 0.37 0.94 0.37z"
      fill="#000" stroke-width="0"/>
  </g>
  <g transform="matrix(1.6342 0 0 1.6342 110.78 64.257)" fill="#34A1E5">
    <path
      d="M24 0A24 24 0 0 0 0 24a24 24 0 0 0 24 24 24 24 0 0 0 24-24A24 24 0 0 0 24 0zm2 11c1.376 0 2.5 1.124 2.5 2.5a2.502 2.502 0 0 1-2.445 2.494l-.946 5.203a3.503 3.503 0 0 1 2.106 1.924L32.52 21.7c-.006-.067-.02-.131-.02-.199 0-1.376 1.124-2.5 2.5-2.5s2.5 1.124 2.5 2.5S36.376 24 35 24a2.496 2.496 0 0 1-2.2-1.34l-5.341 1.432c.016.135.041.268.041.408 0 .785-.269 1.502-.707 2.086l3.697 3.697A1.97 1.97 0 0 1 31.5 30c1.1 0 2 .9 2 2s-.9 2-2 2-2-.9-2-2c0-.368.11-.71.285-1.008l-3.701-3.699C25.5 27.73 24.784 28 24 28c-.785 0-1.502-.27-2.086-.707l-2.975 2.975c.35.49.561 1.086.561 1.732 0 1.653-1.347 3-3 3s-3-1.347-3-3 1.347-3 3-3c.647 0 1.244.208 1.734.559l2.973-2.973A3.463 3.463 0 0 1 20.5 24.5c0-.14.025-.273.041-.408l-5.342-1.432A2.496 2.496 0 0 1 13 24a2.506 2.506 0 0 1-2.5-2.5c0-1.376 1.124-2.5 2.5-2.5s2.5 1.124 2.5 2.5c0 .068-.014.132-.02.2l5.305 1.421A3.503 3.503 0 0 1 24 21c.043 0 .083.012.125.012l.945-5.196A2.505 2.505 0 0 1 23.5 13.5c0-1.376 1.124-2.5 2.5-2.5zm0 1c-.84 0-1.5.66-1.5 1.5S25.16 15 26 15s1.5-.66 1.5-1.5S26.84 12 26 12zm-13 8c-.84 0-1.5.66-1.5 1.5S12.16 23 13 23s1.5-.66 1.5-1.5S13.84 20 13 20zm22 0c-.84 0-1.5.66-1.5 1.5S34.16 23 35 23s1.5-.66 1.5-1.5S35.84 20 35 20zm-11 2a2.484 2.484 0 0 0-2.5 2.5c0 1.394 1.106 2.5 2.5 2.5s2.5-1.106 2.5-2.5S25.394 22 24 22zm0 1c.822 0 1.5.678 1.5 1.5S24.822 26 24 26s-1.5-.678-1.5-1.5.678-1.5 1.5-1.5zm0 1c-.286 0-.5.214-.5.5 0 .286.214.5.5.5.286 0 .5-.214.5-.5 0-.286-.214-.5-.5-.5zm-7.5 6c-1.117 0-2 .883-2 2s.883 2 2 2 2-.883 2-2-.883-2-2-2zm15 1c-.563 0-1 .437-1 1s.437 1 1 1 1-.437 1-1-.437-1-1-1z"/>
  </g>
  <g transform="matrix(.96784 0 0 .96784 52.181 219.26)" fill="#fff">
    <path
      d="m1.28 6.35-0.95-0.2 0.03-0.25h2.85l-0.03 0.25-1.14 0.17 2.14 4.17 2.12-4.15-1.26-0.2 0.01-0.25h2.67l-0.02 0.25-0.88 0.18-2.39 4.73v2.89l1.24 0.14-0.06 0.32h-3.14l0.04-0.29 1.2-0.21v-2.85l-2.43-4.7zm14.91 4.68 2.64-0.15q0.07-0.13 0.07-0.62 0-0.61-0.35-1.03-0.36-0.43-0.87-0.43-0.68 0-1.09 0.59-0.4 0.59-0.4 1.64zm-0.72 0.56q0-1.47 0.75-2.32t1.79-0.85q0.78 0 1.19 0.48 0.4 0.47 0.4 1.52 0 0.4-0.12 0.89l-3.31 0.05q0 0.58 0.12 1.06 0.12 0.47 0.36 0.84 0.23 0.36 0.63 0.57 0.39 0.2 0.91 0.2 0.9 0 1.48-0.57l0.11 0.23q-0.3 0.41-0.82 0.66-0.51 0.24-1.16 0.24-1.03 0-1.68-0.76t-0.65-2.24zm12.84-2.38h-0.86v-0.19q0.33-0.12 0.48-0.2t0.31-0.26q0.16-0.19 0.25-0.49t0.19-0.84h0.29v1.63h1.93l-0.05 0.37h-1.89l-0.02 3.11q0 0.91 0.21 1.23 0.21 0.33 0.68 0.33 0.23 0 0.51-0.13 0.29-0.13 0.45-0.26l0.17-0.13 0.11 0.23q-0.31 0.43-0.75 0.69t-0.88 0.26q-0.61 0-0.88-0.46t-0.27-1.36l0.02-3.53zm24.4-2.23-1.37 3.77h2.69l-1.32-3.77zm-1.32 7.42h-2.72l0.03-0.29 0.97-0.21 2.99-8.08 0.37-0.09 2.83 8.22 0.91 0.13-0.06 0.31h-2.79l0.06-0.29 1.13-0.2-0.95-2.77h-2.95l-1.01 2.82 1.25 0.13-0.06 0.32zm15.73 0h-2.66l0.04-0.22 1.06-0.17v-5l-1.06-0.18 0.02-0.2 1.6-0.13 0.04 0.06-0.03 0.94h0.05q0.29-0.39 0.92-0.75 0.62-0.37 1.27-0.37 0.67 0 1.09 0.49t0.42 1.53v3.61l0.94 0.13-0.02 0.26h-2.58l0.04-0.22 0.97-0.17v-3.43q0-0.85-0.32-1.26-0.33-0.4-0.81-0.4-0.58 0-0.96 0.2-0.38 0.19-0.95 0.73v4.16l0.97 0.14-0.04 0.25zm22.09-4.65q0 1.28 0.36 2.26 0.36 0.99 1.08 1.56t1.7 0.57q0.57 0 1.06-0.22 0.5-0.22 0.84-0.59 0.35-0.37 0.59-0.84 0.24-0.48 0.36-0.99 0.11-0.51 0.11-1.02 0-1.98-0.85-3.19-0.85-1.22-2.3-1.22-0.58 0-1.07 0.21t-0.84 0.57q-0.34 0.36-0.58 0.84-0.24 0.47-0.35 1-0.11 0.52-0.11 1.06zm-0.75 0.41q0-2 1.09-3.24 1.1-1.23 2.94-1.23 1.14 0 1.95 0.58 0.82 0.59 1.22 1.57 0.39 0.99 0.39 2.27 0 0.64-0.15 1.27-0.15 0.62-0.47 1.2-0.33 0.59-0.79 1.03t-1.14 0.71q-0.67 0.26-1.48 0.26-1.05 0-1.88-0.6-0.82-0.61-1.25-1.61t-0.43-2.21zm16.14-0.95h-0.86v-0.19q0.34-0.12 0.49-0.2t0.31-0.26q0.16-0.19 0.25-0.49t0.18-0.84h0.3v1.63h1.92l-0.04 0.37h-1.9l-0.01 3.11q0 0.91 0.21 1.23 0.21 0.33 0.68 0.33 0.22 0 0.51-0.13 0.28-0.13 0.44-0.26l0.18-0.13 0.11 0.23q-0.31 0.43-0.75 0.69t-0.88 0.26q-0.62 0-0.89-0.46t-0.27-1.36l0.02-3.53zm13.12 5.19h-2.72l0.08-0.24 1.05-0.17v-7.73l-1.05-0.21 0.04-0.21 1.63-0.14 0.05 0.07v2.98l-0.07 0.72h0.03q0.43-0.46 1.01-0.77 0.57-0.32 1.14-0.32 0.73 0 1.13 0.51t0.4 1.57v3.55l0.95 0.13-0.04 0.26h-2.56l0.05-0.23 0.95-0.16 0.02-3.37v-0.04q0-0.87-0.32-1.28t-0.88-0.41q-0.58 0-1 0.24-0.41 0.24-0.81 0.71v4.13l0.97 0.16-0.05 0.25zm12.11-3.37 2.64-0.15q0.07-0.13 0.07-0.62 0-0.61-0.35-1.03-0.36-0.43-0.87-0.43-0.68 0-1.09 0.59-0.4 0.59-0.4 1.64zm-0.72 0.56q0-1.47 0.75-2.32t1.79-0.85q0.78 0 1.19 0.48 0.4 0.47 0.4 1.52 0 0.4-0.12 0.89l-3.31 0.05q0 0.58 0.12 1.06 0.12 0.47 0.36 0.84 0.24 0.36 0.63 0.57 0.39 0.2 0.91 0.2 0.9 0 1.48-0.57l0.11 0.23q-0.3 0.41-0.82 0.66-0.51 0.24-1.16 0.24-1.03 0-1.68-0.76t-0.65-2.24zm15.28 2.81h-3.26l0.04-0.21 1.07-0.18v-4.99l-1.07-0.19 0.02-0.2 1.59-0.13 0.06 0.06-0.06 1.78h0.06q0.24-0.88 0.68-1.43 0.44-0.54 0.99-0.54 0.33 0 0.52 0.14 0.19 0.15 0.19 0.38 0 0.12-0.09 0.26t-0.23 0.23q-0.18-0.21-0.34-0.29-0.16-0.09-0.38-0.09-0.27 0-0.5 0.22-0.22 0.22-0.37 0.6-0.16 0.37-0.26 0.79-0.1 0.41-0.17 0.89v2.52l1.56 0.13-0.05 0.25zm20.32-8.21v7.84h1.23q1.81 0 2.9-1.08 1.1-1.08 1.1-2.83 0-1.92-1.05-2.94t-2.99-1.02q-1 0-1.19 0.03zm1.05 8.21h-2.95l0.06-0.29 1.15-0.21v-7.39l-1.17-0.15 0.06-0.24q2.09-0.33 3.24-0.33 0.97 0 1.74 0.24 0.78 0.23 1.29 0.63 0.52 0.39 0.86 0.93t0.49 1.12 0.15 1.21q0 0.72-0.17 1.36-0.17 0.65-0.55 1.22-0.39 0.58-0.95 0.99-0.57 0.42-1.4 0.66-0.83 0.25-1.85 0.25zm16.7-7.42-1.37 3.77h2.69l-1.32-3.77zm-1.32 7.42h-2.73l0.04-0.29 0.97-0.21 2.99-8.08 0.36-0.09 2.84 8.22 0.9 0.13-0.05 0.31h-2.8l0.06-0.29 1.14-0.2-0.95-2.77h-2.96l-1.01 2.82 1.26 0.13-0.06 0.32zm13.8-4.52q0 1.86 0.97 3.08t2.41 1.25q1.13-0.23 1.96-1.31 0.82-1.09 0.82-2.42 0-2.02-0.88-3.22-0.88-1.19-2.35-1.19-1.4 0-2.16 1.05-0.77 1.05-0.77 2.76zm-0.71 0.31q0-1.3 0.46-2.31 0.47-1.02 1.37-1.6 0.9-0.59 2.12-0.59 0.68 0 1.27 0.24t1.02 0.65q0.43 0.42 0.74 0.98 0.3 0.56 0.45 1.21t0.15 1.34q0 0.7-0.23 1.4-0.23 0.71-0.63 1.31t-1.01 1.05q-0.61 0.44-1.32 0.61 0.22 0.49 0.48 0.85 0.26 0.35 0.52 0.57 0.26 0.21 0.6 0.35t0.65 0.19q0.31 0.06 0.75 0.1-0.01 0.02-0.03 0.15t-0.03 0.15q-0.41 0.19-1.05 0.19-0.86 0-1.45-0.71-0.6-0.71-0.78-1.77-0.18 0.02-0.55 0.02-0.7 0-1.34-0.35-0.65-0.35-1.12-0.93-0.48-0.59-0.76-1.4t-0.28-1.7z"
      fill="#000" stroke-width="0"/>
  </g>
</svg>
